<?xml version="1.0" standalone="no"?><!DOCTYPE svg PUBLIC "-//W3C//DTD SVG 1.1//EN" "http://www.w3.org/Graphics/SVG/1.1/DTD/svg11.dtd"><svg t="1629857715645" class="icon" viewBox="0 0 1024 1024" version="1.1" xmlns="http://www.w3.org/2000/svg" p-id="1370" xmlns:xlink="http://www.w3.org/1999/xlink" width="16" height="16"><defs><style type="text/css"></style></defs><path d="M553.770667 133.248l95.146666 190.72c6.826667 13.909333 20.224 23.552 35.754667 25.856l213.162667 31.018667c12.501333 1.749333 23.808 8.362667 31.402666 18.346666 7.552 9.941333 10.752 22.485333 8.917334 34.773334-1.493333 10.24-6.272 19.626667-13.696 26.922666l-154.538667 149.632c-11.306667 10.581333-16.469333 26.026667-13.653333 41.130667l38.016 210.602667a47.573333 47.573333 0 0 1-38.058667 54.229333 49.834667 49.834667 0 0 1-30.421333-4.864l-190.293334-99.114667a49.877333 49.877333 0 0 0-44.928 0l-190.293333 99.114667a48.768 48.768 0 0 1-65.450667-19.072 48.256 48.256 0 0 1-4.949333-29.909333l38.058667-210.602667a45.141333 45.141333 0 0 0-13.696-41.130667L99.712 461.226667a46.378667 46.378667 0 0 1 0-66.56c7.296-7.466667 16.981333-12.202667 27.392-13.482667l213.162667-31.061333c15.530667-2.261333 28.885333-11.946667 35.754666-25.770667l91.733334-191.146667a47.274667 47.274667 0 0 1 43.392-26.197333h5.717333c16 2.005333 29.909333 11.861333 36.906667 26.197333z" fill="#ff9f4f" p-id="1371"></path><path d="M512.298667 806.912a51.797333 51.797333 0 0 0-23.594667 6.4L299.008 912.213333c-22.741333 11.434667-51.626667 2.261333-64.170667-19.626666a46.805333 46.805333 0 0 1-4.949333-29.568L267.946667 652.8c2.56-15.232-2.56-30.72-13.696-41.514667l-154.88-149.632a46.549333 46.549333 0 0 1 0-66.56c7.253333-7.253333 16.768-11.946667 27.008-13.482666l213.888-31.445334c16.469333-2.389333 28.245333-11.52 35.754666-25.770666l92.928-193.365334c7.082667-15.701333 30.890667-26.581333 43.690667-23.978666-0.341333 12.714667-0.341333 691.2-0.341333 699.861333z" fill="#ff9f4f" p-id="1372"></path></svg>