<?xml version="1.0" standalone="no"?><!DOCTYPE svg PUBLIC "-//W3C//DTD SVG 1.1//EN" "http://www.w3.org/Graphics/SVG/1.1/DTD/svg11.dtd"><svg t="1629704233449" class="icon" viewBox="0 0 1194 1024" version="1.1" xmlns="http://www.w3.org/2000/svg" p-id="6666" width="55.96875" height="48" xmlns:xlink="http://www.w3.org/1999/xlink"><defs><style type="text/css"></style></defs><path d="M1143.466667 643.868444a42.666667 42.666667 0 0 1 42.382222 37.717334l0.284444 4.949333v178.090667c0 72.362667-51.712 133.319111-119.381333 137.443555l-7.310222 0.199111H135.224889c-68.750222 0-122.851556-58.453333-126.492445-129.934222l-0.199111-7.68v-178.119111a42.666667 42.666667 0 0 1 85.048889-4.949333l0.284445 4.949333v178.090667c0 27.989333 17.208889 49.322667 37.063111 52.053333l4.266666 0.284445h924.245334c20.167111 0 38.712889-19.484444 41.102222-46.449778l0.256-5.888v-178.062222a42.666667 42.666667 0 0 1 42.666667-42.666667zM659.342222 29.013333l4.949334 4.608 220.672 220.672a42.666667 42.666667 0 0 1-56.604445 63.658667l-3.754667-3.299556L642.844444 132.807111l0.028445 562.688a28.444444 28.444444 0 0 1-28.444445 28.444445h-34.133333a28.444444 28.444444 0 0 1-28.444444-28.444445l-0.028445-562.631111-181.76 181.76a42.666667 42.666667 0 0 1-63.630222-56.604444l3.299556-3.754667 220.672-220.672a94.691556 94.691556 0 0 1 128.967111-4.608z" p-id="6667" fill="grey"></path></svg>