<?xml version="1.0" standalone="no"?><!DOCTYPE svg PUBLIC "-//W3C//DTD SVG 1.1//EN" "http://www.w3.org/Graphics/SVG/1.1/DTD/svg11.dtd"><svg t="1628323429900" class="icon" viewBox="0 0 1024 1024" version="1.1" xmlns="http://www.w3.org/2000/svg" p-id="1742" xmlns:xlink="http://www.w3.org/1999/xlink" width="16" height="16"><defs><style type="text/css"></style></defs><path d="M1023.62 43.23c0-23.02-18.83-41.85-41.85-41.85-7.84 0-14.64 2.1-20.92 5.75L25.48 500.96c-13.6 6.8-22.49 21.97-22.49 37.67 0 15.69 8.89 29.81 23.02 37.14l242.73 132.88c6.27 2.61 13.08 4.18 18.83 4.18 16.22 0 30.35-8.9 37.67-23.02 9.94-20.4 1.57-46.04-18.83-56.5l-169.49-95.73 679.03-359.91-426.9 518.95c-6.27 8.37-9.94 17.79-9.94 27.2v256.86c0 22.49 19.36 41.85 41.85 41.85 22.49 0 41.85-19.36 41.85-41.85V739.51l454.61-553.47-87.88 704.13-255.3-121.89c-5.23-3.14-11.51-4.19-18.31-4.19-16.22 0-30.34 8.89-37.66 23.54-4.71 9.94-5.76 21.45-2.1 31.91 3.66 10.99 10.99 19.36 20.92 24.07l308.13 145.43c5.23 3.14 11.51 4.18 18.31 4.18 6.28 0 13.08-1.57 19.36-4.71 12.03-6.28 20.4-17.79 21.97-30.87l118.75-909.21v-5.2z" p-id="1743" fill="#40CECE"></path></svg>